<?xml version="1.0" encoding="UTF-8"?>
<svg width="210mm" height="297mm" version="1.1" viewBox="0 0 210 297" xml:space="preserve" xmlns="http://www.w3.org/2000/svg"><path d="m186.56 161.66a94.44 78.7 0 0 1-113.08 38.937 94.44 78.7 0 0 1-64.292-86.752 94.44 78.7 0 0 1 92.415-66.824" style="fill:none;paint-order:markers stroke fill;stop-color:#000000;stroke-dasharray:4.4000001, 8.80000019;stroke-linecap:round;stroke-linejoin:bevel;stroke-width:2.2;stroke:#af670d"/><g transform="translate(0 -5.2917)"><path d="m95.101 292.95c-52.28 3.4194-104.65-53.036-83.747-104.77 28.474-69.04 139.04-73.74 175.76-9.8537 23.415 36.181 1.977 85.653-34.891 103.07-17.382 9.2481-37.498 13.477-57.123 11.549z" style="fill:#9e9c98;stroke-width:.26458"/><path d="m89.935 292.31c-52.315 1.1298-101.06-58.971-76.865-108.83 16.825-27.194 51.659-32.725 79.213-43.649 33.432-5.1486 66.824 15.629 81.378 45.361 17.657 13.749 33.67 33.11 16.871 56.19-17.966 36.617-61.159 55.332-100.6 50.931zm10.206-1.8474c8.6438-7.539-11.184-1.6065 0 0zm4.3752-0.15396c8.0704-7.7842-11.463-1.6794 0 0zm-10.292 0.0722c10.148-6.4651-10.368-3.5353 0 0zm-4.7387-0.39283c11.167-1.409-6.7184-5.7741 0 0zm20.028 0.17318c8.3178-8.2972-12.589-2.6129 0 0zm4.8223-0.75173c5.9785-7.7606-10.392 0.49655 0 0zm-29.76-2.2657c8.116 1.4994-2.9464-5.6219 0 0zm34.703 1.6149c5.811-8.9933-11.55 0.25858 0 0zm-39.655 0.0766c9.6028-4.2888-8.9303-5.8728 0 0zm44.285-0.97068c3.0328-8.6996-8.9354 3.3812 0 0zm-48.867-0.79539c17.889-3.0238-9.8955-8.1648 0 0zm53.516-0.21233c5.7406-7.7195-10.478 1.3648 0 0zm-57.028-0.7167c10.996-3.05-8.5559-7.4977 0 0zm61.286-0.67514c7.7133-12.051-12.14 1.5098 0 0zm-66.551-0.78223c11.946-1.7054-7.7538-8.2174 0 0zm71.374-0.78148c2.2612-10.055-9.736 4.3566 0 0zm-75.625-0.59207c11.033-1.4466-7.7613-8.5904 0 0zm79.448-0.90277c3.7844-8.9117-7.1898 1.8348 0 0zm-84.248-1.1497c8.6242-1.0404-5.6072-7.2103 0 0zm88.761-0.62694c2.0875-10.332-10.526 4.2808 0 0zm-92.918-0.97378c6.2185-0.19914-3.6021-5.5896 0 0zm96.848-0.98434c3.644-14.723-13.438 4.5639 0 0zm-100.82-1.0711c9.3105 0.0145-5.0534-9.0436 0 0zm105.05-1.1793c0.51165-9.1875-9.0807 4.9193 0 0zm-106.15-3.9145c6.2557 1.5498-2.2381-6.183 0 0zm109.96 1.5678c-0.5013-9.5937-8.2459 5.9138 0 0zm-115.94-1.5749c6.4007 0.8868-2.1565-6.4241 0 0zm119.79-0.97368c-1.194-9.6208-7.7933 6.6038 0 0zm-123.53-0.75616c13.585 3.6981 1.4324-17.142 0 0zm126.37-1.2359c0.38623-9.0275-7.5268 4.8693 0 0zm-130.3-2.5474c7.8395 2.6119-0.9782-9.2158 0 0zm133.66-0.0973c-0.72334-10.583-8.2878 6.4525 0 0zm-135.89-2.8525c8.4937 3.0579 4.8219-9.574 0 0zm139.29-0.12459c-2.4536-7.7854-6.223 6.768 0 0zm-141.97-2.9364c8.2714 3.1584 1.0977-9.5617 0 0zm144.67 0.305c-3.3019-8.6102-5.8772 7.5374 0 0zm3.0586-3.1721c-2.6173-9.9976-6.1555 7.0365 0 0zm-150.39-0.1815c10.834 5.0447 7.1485-13.527 0 0zm152.85-2.5342c-3.4506-14.246-8.571 10.03 0 0zm-154.74-0.92354c6.9506 3.689 2.1932-8.8414 0 0zm157.71-2.9267c11.306-13.457-20.818-4.4173 0 0zm-160.97 0.16621c10.214 3.9574 9.5677-9.6949 0 0zm36.542-3.0583c-10.494-3.8182-8.5632 2.4924 0 0zm-7.7587-2.38c-5.5725-6.594-9.0271 3.8869 0 0zm3.7042-1.4704c-9.9338-3.2632-8.9371-0.21215 0 0zm0.92604-1.8419c-8.9698-5.6153-14.211 1.2137 0 0zm-0.92604-2.133c-9.0885-5.4268-15.87-0.15078 0 0zm-0.94768-1.7318c-10.128-6.9067-16.695-0.13613 0 0zm2.2706-2.1797c-8.4454-4.0893-13.594-1.709 0 0zm0.26458-1.6281c-7.9668-3.9417-12.786-2.0348 0 0zm121.97-1.5023c4.8767 7.8359 3.5119-7.0669 0 0zm-122.57-0.44874c-8.2295-4.5927-13.48-2.1079 0 0zm121.23-1.7604c6.0957 7.1737 3.926-8.4612 0 0zm-120.9 0.0325c-9.3234-3.9594-17.548-5.1697 0 0zm-1.1954-1.8699c-7.8854-5.0528-13.379-3.2303 0 0zm110.79-0.94084c4.9685-2.6627 6.3286-3.3916 0 0zm14.239-0.23155c7.0517 4.0591 0.0776-8.1868 0 0zm-4.8935-0.66328c6.5726 4.4337 2.3283-8.3248 0 0zm-124.15-0.99491c-8.3673-8.2173-14.781-2.3406 0 0zm127.98-2.7331c8.0764 4.0098 1.5302-9.3564 0 0zm-8.6125 2e-3c3.7926-0.66567 3.7316-4.0244 0 0zm-119.89-1.7306c-8.7162-7.4483-12.115-3.1508 0 0zm-1.7049-2.6675c-2.2708-4.1188-13.543-7.1114-4.2897-1.9197zm116.73-1.0944 3.6801-2.6322zm9.1904-1.5268c7.6346 3.3792 0.7423-9.3454 0 0zm-137.4 0.40228c-2.3448-5.3069-7.3317 0.50087 0 0zm135.64-1.7321c7.1325 2.347 0.94253-8.0388 0 0zm6.5686 0.63887c7.4677 5.7835 2.2427-9.2075 0 0zm-132.79-0.49425c-7.8179-8.4666-8.6879-1.2372 0 0zm0.10075-2.0518c-5.842-7.5339-8.3289-2.319 0 0zm77.173-0.85506c5.9826-8.9893-10.56 0.0159 0 0zm-77.445-1.6194c-3.3821-7.3564-10.645-2.9827 0 0zm132.17-5.043c8.8572 2.3249-0.38704-9.3506 0 0zm-132.72 1.7834c-2.461-7.5711-11.255-2.328 0 0zm2.0373-0.90802c-5.5836-8.406-6.7527-1.8503 0 0zm127.77-1.2942c6.9649 1.297 0.27044-8.0938 0 0zm-126.92-0.45517c-29.559-5.8116 15.232-50.484-19.833-41.045-22.359 19.223 4.2616 32.066 19.833 41.045zm128.56-3.6065c7.2006 2.1652 0.71717-8.327 0 0zm-0.42824-2.3681c6.1851 1.8052-0.5325-6.7936 0 0z" style="fill:#a78b64;stroke-width:.26458"/><path d="m94.463 292.53c-25.703 1.9448-56.341-11.411-57.667-38.188-22.42-7.6618-43.063-30.685-29.927-55.003 9.6-26.218 58.247 5.4117 47.755-29.433-5.0599-28.615 38.021-28.385 57.395-27.001 24.375 3.8606 44.186 22.643 58.95 41.383 7.8619 20.567 19.629 44.225 14.349 66.155-17.421 27.909-52.419 40.58-84.037 42.368l-3.4112-0.0693zm5.6789-2.0632c7.511-8.3349-11.434-1.312 0 0zm3.9402 0.0507c9.378-5.764-8.985-3.3831 0 0zm-9.9054-0.0906c6.0564-4.5507-7.7433-2.6139 0 0zm-4.6736-0.43472c10.596-6.6824-10.661-3.7973 0 0zm20.009 0.17423c5.6687-7.585-9.8553-0.56691 0 0zm4.825-0.75283c5.1227-8.1465-10.175 0.37909 0 0zm-29.76-2.2657c14.424-4.0702-10.774-8.9489 0 0zm34.703 1.6149c4.4246-7.9199-10.143 0.25018 0 0zm-39.655 0.0766c8.3337-3.9759-8.5263-5.7511 0 0zm44.285-0.97068c6.3774-12.143-15.581-6.2384 0 0zm-48.872-0.77816c14.855-2.4615-10.088-10.537 0 0zm53.521-0.22957c5.2713-9.995-11.416 1.9294 0 0zm-56.982-0.77142c12.175-2.8562-7.8003-11.072 0 0zm61.24-0.62042c7.6374-11.012-11.484 0.5948 0 0zm-66.551-0.78219c9.1017-2.6306-7.5233-6.3995 0 0zm71.365-0.77301c2.6836-10.761-10.433 4.3377 0 0zm-75.616-0.59751c11.08-1.6273-6.7095-10.861 0 0zm79.447-0.9058c5.9116-13.87-13.682 2.8536 0 0zm-84.32-1.0342c9.1869-0.62373-3.1471-9.2808 0 0zm88.833-0.74242c0.59172-9.2231-8.3371 4.5232 0 0zm-92.918-0.97378c13.077 1.0047-2.9925-15.031 0 0zm96.848-0.98434c0.77302-9.1256-9.3051 4.1387 0 0zm-99.595-2.4955c9.5912 1.3374-4.3773-9.8214 0 0zm103.83 0.2451c2.0937-10.607-8.8847 4.2105 0 0zm3.8688-2.3464c-0.95384-9.2385-9.293 3.2779 0 0zm-115.99-1.5753c6.4229 1.0734-1.8519-6.4626 0 0zm119.79-0.96375c-1.2459-10.825-7.7078 7.692 0 0zm-123.53-0.76609c11.418 2.622 2.4869-12.799 0 0zm126.37-1.2359c1.5067-12.581-8.7327 5.4344 0 0zm-130.3-2.5474c7.2754 2.3118-0.59955-8.149 0 0zm133.56 0.0305c0.12312-15.034-11.746 7.6644 0 0zm-135.79-2.9803c11.837 4.7974 7.395-12.541 0 0zm139.29-0.12459c-2.2803-8.7758-7.2061 7.0118 0 0zm2.8073-2.5887c-2.7226-14.091-8.9442 8.4489 0 0zm-57.96-1.8573c7.1425 1.865-1.346-5.2819 0 0zm-13.987-0.50043c11.597 3.0538-3.6724-12.961 0 0zm74.985-0.87676c-3.1646-7.372-5.3478 6.5229 0 0zm-93.641-2.4967c5.2994 2.6631-0.69589-4.5549 0 0zm96.016-0.1992c-5.5907-8.9015-9.9816 5.7174 0 0zm2.4807-3.1905c15.128-15.692-27.74-11.301-5.6342-1.019zm-106.96 0.29467c19.177 9.3034 2.5944-27.613 0 0zm-16.98-3.8516c-6.6254-4.5752-11.071 3.3091 0 0zm11.296-2.3138c7.9102-1.5284-4.0347-8.4344 0 0zm-12.176 0.44928c-6.4939-4.4957-9.7237 2.601 0 0zm1.2404-2.0645c-7.689-3.1722-10.41 1.2601 0 0zm-3.4894-1.7582c-9.2518-5.3752-14.073 1.6377 0 0zm-0.92604-2.133c-10.826-6.4863-16.972 1.4403 0 0zm-0.94768-1.7318c-8.9708-7.6914-17.295-0.20656 0 0zm61.802-2.0727c0.94293-9.6896-7.1066 4.3448 0 0zm-59.531-0.10697c-9.4536-4.6138-9.2-0.38363-0.6977-0.14881zm66.249-0.52337c6.8016 6.5095-0.70124-7.6605 0 0zm-65.985-1.1047c-8.176-4.368-14.131-1.711 0 0zm117.87-0.48001c6.9033 5.9395 4.3734-8.6396 0 0zm-69.189-0.43372c3.1351-9.234-9.9231 2.6088 0 0zm-49.279-1.0374c-8.2445-4.6956-13.627-2.095 0 0zm118.73-0.88555c7.4041 6.055 3.4251-9.1653 0 0zm-60.57-2.3284c5.9134-10.386-13.407-2.695 0 0zm-57.831 1.4861c-9.122-4.1678-18.285-5.1911 0 0zm118.96-1.5206c6.0455 3.5715 3.0271-7.4268 0 0zm-102.88-4.3258c14.454 6.5159-0.67904-20.106 0 0zm-17.324 3.8298c-7.9499-5.103-13.746-3.2144 0 0zm-3.6021-2.8714c-3.1654-5.959-17.576-5.7993-5.2185-1.2101zm75.118-3.9269c1.649-10.689-7.9684 6.2297 0 0zm-75.465 0.36568c-7.93-8.4147-14.289-3.2798 0 0zm-1.9511-3.3424c-2.1881-4.3678-13.717-6.9019-4.3541-1.8191zm110.62-1.8968c3.3653-8.8486-7.4997 3.554 0 0zm-122.4-0.36023c-1.2892-5.7156-7.3462 1.5166 0 0zm11.377-0.36618c-6.5968-9.9562-16.617-4.783 0 0zm36.033 0.15831c1.5687 6.2338 3.2709-4.5445 0 0zm36.461-0.42794c15.539-8.7512-19.952-18.624 0 0zm-74.12-2.9579c-3.6212-7.2164-10.838-3.2634 0 0zm89.282 0.36575c7.1537-7.2484-8.1642 0.16677 0 0zm-50.218-2.3283c7.1615 6.911 0.04727-6.8615 0 0zm-39.158-0.22679c-2.376-7.7393-11.62-2.1864 0 0zm92.011-0.35875c9.2404-5.441-8.6555-0.17884 0 0zm-92.804-3.1213c-4.1933-8.5601-12.681-3.1897 0 0zm82.86 0.62315c7.0285 0.88053-4.0607-3.9867 0 0zm-43.106-1.4681c1.1545-10.085-7.9165 6.6396 0 0zm-37.637 0.10117c-7.1028-10.609-8.8476-2.9902 0 0zm18.905-0.81743c9.289-6.4468-8.0227 0.012 0 0zm11.228 0.40835c11.402-13.583-12.879 0.82889 0 0zm53.603-3.4085c8.3853 0.69022-5.31-4.0074 0 0zm-33.742-0.71445c9.1702-4.8492-8.7589-2.3266 0 0zm6.5812-10.814c1.5182-6.9494-3.9905 3.7208 0 0zm36.718-3.4239c5.5551-11.267-9.9783 2.2954 0 0zm-29.807-0.15914c8.2477-10.107-10.428 3.1334 0 0zm-40.203-0.96213c12.327 5.6762-1.2379-12.729 0 0zm41.705-16.294c8.3497 5.7675 0.22672-9.7567 0 0zm-59.88 24.164c-7.6542-4.3015-5.2249-11.009 0 0zm2.4426-0.6035c-7.7628-2.0171-1.4917-11.715 0 0zm1.0578-1.7636c-18.399-8.0913 0.96613-24.434 0 0zm2.8142-2.6125c-14.789-5.6316-1.1801-28.31 0 0z" style="fill:#946434;stroke-width:.26458"/><path d="m94.463 292.55c-30.45 6.0969-53.101-19.577-63.653-40.629-22.835-7.9648-36.403-38.48-19.592-58.113 14.912-19.549 56.764 17.447 43.715-21.369-6.2216-23.763 25.723-29.979 43.089-31.008 22.246-1.1856 43.278 10.081 57.173 26.735 23.965 15.791 27.115 46.485 30.47 72.406-2.3045 31.042-39.215 44.409-65.374 50.123-8.5192 1.4749-17.186 2.0816-25.828 1.855zm5.6789-2.0824c14.243-17.24 29.631-54.06 1.384-63.951-31.131 23.558 12.848-39.894-19.825-30.139-27.146 17.072-11.374 58.71 15.593 65.96 5.3276 8.5395-0.26932 19.022 2.8478 28.129zm0.01-20.12c-0.0213-11.077 10.38 6.4031 0 0zm10.716-5.3619c9.9369 4.5418-2.3565-6.0575 0 0zm-14.027-22.559c3.4648-10.728 7.0463 8.9706 0 0zm14.294-9.5138c-17.677-1.7438 9.3494-8.725 0 0zm-37.97-7.9763c-0.30386-9.8164 5.8705 3.6061 0 0zm12.992-17.14c-7.3078-6.3638 8.118-0.0631 0 0zm17.926 82.722c9.378-5.764-8.985-3.3831 0 0zm-9.9054-0.0906c6.0564-4.5507-7.7433-2.6139 0 0zm-4.6736-0.43472c9.7992-6.4502-10.899-4.858 0 0zm20.009 0.17423c5.6687-7.585-9.8553-0.56691 0 0zm4.825-0.75283c5.1227-8.1465-10.175 0.37909 0 0zm-29.76-2.2657c14.424-4.0702-10.774-8.9489 0 0zm34.703 1.6149c4.4246-7.9199-10.143 0.25018 0 0zm-39.655 0.0766c8.3337-3.9759-8.5263-5.7511 0 0zm-4.5867-1.7488c14.855-2.4615-10.088-10.537 0 0zm53.521-0.22957c5.2713-9.995-11.416 1.9294 0 0zm-56.982-0.77142c12.175-2.8562-7.8003-11.072 0 0zm61.24-0.62042c7.6374-11.012-11.484 0.5948 0 0zm-66.551-0.78219c9.1017-2.6306-7.5233-6.3995 0 0zm71.365-0.77301c2.6836-10.761-10.433 4.3377 0 0zm-75.616-0.59751c11.08-1.6273-6.7095-10.861 0 0zm79.447-0.9058c5.9116-13.87-13.682 2.8536 0 0zm-84.32-1.0342c9.1869-0.62373-3.1471-9.2808 0 0zm88.833-0.74242c0.59172-9.2231-8.3371 4.5232 0 0zm-92.918-0.97378c12.452 3.0831-0.31898-16.516 0 0zm96.848-0.98434c0.77302-9.1256-9.3051 4.1387 0 0zm-99.595-2.4955c9.5912 1.3374-4.3773-9.8214 0 0zm103.83 0.2451c2.0937-10.607-8.8847 4.2105 0 0zm3.8688-2.3464c-0.96232-10.851-12.277 3.367 0 0zm-115.99-1.5753c6.4229 1.0734-1.8519-6.4626 0 0zm119.79-0.96375c-1.2459-10.825-7.7078 7.692 0 0zm-123.53-0.76609c11.418 2.622 2.4869-12.799 0 0zm126.37-1.2359c1.5067-12.581-8.7327 5.4344 0 0zm-130.3-2.5474c7.2754 2.3118-0.59955-8.149 0 0zm133.56 0.0305c0.12312-15.034-11.746 7.6644 0 0zm-135.79-2.9803c11.837 4.7974 7.395-12.541 0 0zm139.29-0.12459c-2.2803-8.7758-7.2061 7.0118 0 0zm-84.975-2.2092c7.7137-2.0383-4.1665-2.9764 0 0zm87.782-0.3795c-2.7226-14.091-8.9442 8.4489 0 0zm-29.878-1.2126c-2.625-8.1127-6.1355 6.2334 0 0zm32.916-2.0218c-3.1646-7.372-5.3478 6.5229 0 0zm2.3752-2.6959c-5.5907-8.9015-9.9816 5.7174 0 0zm2.4807-3.1905c15.128-15.692-27.74-11.301-5.6342-1.019zm-123.94-3.557c-6.6254-4.5752-11.071 3.3091 0 0zm92.24-0.59399c8.8635-12.676-17.98-1.8922 0 0zm-93.12-1.2705c-10.738-5.9636-10.273 1.9138 0 0zm1.2404-2.0645c-7.689-3.1722-10.41 1.2601 0 0zm57.788-0.62522c0.97673 5.9631 3.2134-2.9657 0 0zm-61.277-1.133c-9.2518-5.3752-14.073 1.6377 0 0zm-0.92604-2.133c-10.826-6.4863-16.972 1.4403 0 0zm84.931-1.664c4.2182-8.3016-6.456 2.3626 0 0zm-85.879-0.0678c-8.9708-7.6914-17.295-0.20656 0 0zm73.973-1.1623c13.232-3.8916-11.269-11.12 0 0zm-71.702-1.0174c-9.4536-4.6138-9.2-0.38363-0.6977-0.14881zm7.6029-0.57184c10.988-2.8445-8.1886-4.2783 0 0zm-7.3383-1.0562c-8.176-4.368-14.131-1.711 0 0zm117.87-0.48001c6.9033 5.9395 4.3734-8.6396 0 0zm-118.47-1.4711c-8.2445-4.6956-13.627-2.095 0 0zm118.73-0.88555c7.4041 6.055 3.4251-9.1653 0 0zm-118.4-0.84235c-9.122-4.1678-18.285-5.1911 0 0zm118.96-1.5206c6.0455 3.5715 3.027-7.4268 0 0zm-120.2-0.49599c-7.9499-5.103-13.746-3.2144 0 0zm93.047-2.4245c8.6077-4.5542-8.0344-1.8574 0 0zm-23.678 1.7689c16.394-17.232-15.147-39.948-0.74218-56.834-15.055-14.303-47.255 12.145-14.472 15.645 10.487 11.514 2.8472 30.723 15.215 41.19zm-6.1536-20.886c-7.8804-0.27112 4.9392-3.9874 0 0zm-66.818 18.671c-3.1654-5.959-17.576-5.7993-5.2185-1.2101zm-0.34698-3.5612c-8.3995-9.1752-15.993-3.5766 0 0zm-1.9511-3.3424c-2.1881-4.3678-13.717-6.9019-4.3541-1.8191zm111.23 0.16238c-1.1711-9.2667-7.6991 6.1608 0 0zm-123.01-2.4194c-1.2892-5.7156-7.3462 1.5166 0 0zm11.377-0.36618c-6.5968-9.9562-16.617-4.783 0 0zm92.992-2.1136c13.935-11.538-19.319-7.0769 0 0zm-94.618-1.1139c-3.6212-7.2164-10.838-3.2634 0 0zm20.335-2.2076c8.3476-6.4693-8.0899-1.2734 0 0zm-20.429 0.0183c-2.376-7.7393-11.62-2.1864 0 0zm-0.79375-3.4801c-4.1933-8.5601-12.681-3.1897 0 0zm2.1167-0.74374c-7.1028-10.609-8.8476-2.9902 0 0zm90.703-10.822c-2.7923-11.701-9.1543 9.1583 0 0zm9.3448 0.21217c10.455-3.6416-8.7251-3.6494 0 0zm-23.655-4.5183c6.8815-6.2526-6.3503 0.90816 0 0zm-104.11 61.56c4.559-8.0905 9.293 4.5752 0 0zm33.507-54.749c-7.7477-3.9826-3.0031-10.322 0 0zm-0.67573-3.7037c-7.6541-4.3015-5.2249-11.009 0 0zm2.4337-0.61514c-7.7793-2.0155-1.4693-11.714 0 0zm1.056-1.7648c-18.4-8.0835 0.98658-24.431 0 0zm2.8249-2.5997c-14.789-5.6316-1.1801-28.31 0 0z" style="fill:#5f5f5e;stroke-width:.26458"/><path d="m92.214 292.27c-11.086 3.7765-44.819-13.628-16.522-3.6816 39.223 8.6236 83.566-5.5412 108.16-37.863-19.518 29.789-56.98 43.982-91.637 41.545zm3.0611-2.7141c-14.239-26.323-59.027-44.611-42.52-80.578 9.8545-27.495 58.321-37.017 64.568-2.3026 13.878 19.28 8.6497-12.459 3.6294-20.359 19.042-19.383 50.17 30.048 37.569 51.717-1.2719 26.637-54.375 43.797-44.882 5.7725 7.2704-25.507-17.175-17.147-25.589-13.292 5.4159-12.825 13.762-44.427-10.805-31.212-19.974 19.215-6.7291 50.084 14.088 62.524 9.2776 7.1161 10.304 18.212 3.9429 27.731zm-8.8429-27.852c7.7137-2.0383-4.1665-2.9764 0 0zm63.977-13.651c8.8635-12.676-17.98-1.8922 0 0zm-84.93-2.4474c6.7534-4.0628-6.2164-0.35767 0 0zm50.838-1.5128c1.5333 5.5003 2.8748-3.6049 0 0zm22.728-4.93c4.2182-8.3016-6.456 2.3626 0 0zm-11.906-1.2301c13.232-3.892-11.269-11.119 0 0zm-64.099-1.5892c10.988-2.8445-8.1886-4.2783 0 0zm84.207-9.1763c8.6077-4.5542-8.0344-1.8574 0 0zm-6.3593-12.087c13.036-13.931-20.307-5.2026 0 0zm-2.6856-18.35c-1.2119-10.379-8.2158 7.8769 0 0zm-14.311-4.3061c7.4005-5.9043-6.3285 0.30522 0 0zm-18.377 97.152c-8.1038-6.0652 8.124-2.2497 0 0zm-15.075-0.34211c-6.063-6.8525 9.2915-1.7159 0 0zm-5.6102-0.45643c-4.5131-7.7112 8.2125 0.79235 0 0zm30.158-0.41876c-7.6102-4.9114 7.7537-2.7924 0 0zm9.5588-1.7957c-7.9299-3.3465 7.0472-6.1747 0 0zm21.721-8.3476c-8.7267-0.36196 4.5945-8.0784 0 0zm4.208-1.7066c-8.4844-0.0675 4.0765-8.177 0 0zm-44.909-1.3842c-1.8111-7.473 3.9183 3.8233 0 0zm52.113-3.3304c-9.2403 2.6978 2.5571-9.6882 0 0zm-57.528-1.4501c-0.0212-11.077 10.38 6.4031 0 0zm10.716-5.3619c9.937 4.5418-2.3565-6.0575 0 0zm52.978 2.0546c-8.5644 3.1544 1.8788-8.9892 0 0zm6.6996-5.407c-6.8374 5.1107-2.0532-8.9896 0 0zm7.6588-8.7552c-5.7432 5.2763-0.24857-7.6156 0 0zm1.9844-2.4873c-7.6189 5.0116-0.13334-9.5935 0 0zm4.5572-5.7367c-8.0104 5.1898-0.74346-10.025 0 0zm-87.905-2.2274c3.4648-10.728 7.0463 8.9706 0 0zm76.866-4.4623c3.9406-8.0716 6.1146 7.7644 0 0zm-164.36-5.0554c-4.7352-3.6126 3.9245-7.0528 0 0zm101.79 4e-3c-17.677-1.7438 9.3494-8.7251 0 0zm64.866-0.53386c2.9687-8.9805 6.639 6.5289 0 0zm-102.84-7.4424c-0.30386-9.8164 5.8705 3.6061 0 0zm103.03-16.523c1.4184-8.7412 7.4294 5.4371 0 0zm-90.035-0.61732c-6.9094-6.117 7.7345-0.0467 0 0zm-39.583-4.271c-10.203-0.99121 5.5388-4.9204 0 0zm94.985-18.828c-8.9236 2.5306 3.0446-9.0647 0 0zm-84.969-1.9932c-7.4916-0.9848 2.5793-8.1784 0 0zm14.105-0.7717c-5.06-4.408-0.09794-8.6445 0 0zm-2.5047-0.40569c-5.5729-3.4155-0.92036-10.808 0 0zm4.2742-1.2641c-4.9471-4.6922-0.67898-10.215 0 0zm3.3987-1.3818c-6.1243-5.0811 1.9089-11.171 0 0zm3.824-0.98585c-4.9201-5.0833 1.5404-8.6643 0 0zm-2.1939-0.21801c-5.3145-6.998 1.4228-6.2248 0 0zm9.8399 0.39688c-14.231-22.607 20.15-19.32 3.0059-0.55896zm-5.792-0.83252c-15.573-14.624 14.926-21.944 0 0zm-8.7294-0.60064c-5.2823-3.6914 0.1663-10.802 0 0zm-18.115-1.9932c-8.9601-1.5488 6.2598-7.3216 0 0zm44.769-1.3712c-26.557-15.859 32.364-34.938 10.863-4.6006-1.7421 3.4349-7.0278 8.234-10.863 4.6006zm26.956-0.78363c-6.464-5.6399 6.1988-1.3491 0 0zm-2.2627-2.1835c-3.2856-6.7146 7.8586-9.14 0 0zm-21.069-2.2005c-4.7279-4.7546 5.2147-9.696 0 0zm12.409-0.0705c-3.5534-5.0964 5.6025-6.2086 0 0zm6.9994-1.3413c-2.7917-5.3343 5.4968-4.0518 0 0zm-4.6127 0.59532c-3.3408-4.9951 5.6924-6.014 0 0zm2.2097-0.11962c-3.0783-5.0398 6.3516-6.1621 0 0zm-63.162-3.2538c-10.229-0.67851 5.9974-7.9246 0 0zm70.574-0.44235c-3.2312-5.0043 6.3543-3.7779 0 0zm-12.928-4.6728c-4.1741-5.4039 6.4881-4.4544 0 0zm17.165-2.5238c-4.4089-7.3202 8.9585-0.99065 0 0z" style="fill:#6e4929;stroke-width:.26458"/><path d="m92.479 292.15c-13.557 1.9029-44.363-12.538-13.895-2.9801 36.209 6.8435 76.055-5.2052 100.88-32.817-20.318 25.943-54.753 37.855-86.984 35.797zm2.7965-2.5915c-9.4144-8.9635 9.8891-1.4746 0 0zm10.239 0.02c-7.2963-5.3999 7.1788-2.2105 0 0zm-15.075-0.34211c-4.4257-7.0194 8.306-0.23569 0 0zm-5.6102-0.45643c-4.245-7.8267 8.4686 0.996 0 0zm-9.0199-1.8562c-1.4765-6.5782 7.1958 1.9018 0 0zm48.736-0.35834c-8.0504-3.1748 6.5834-5.9643 0 0zm5.4151-1.4464c-26.777-13.964 0.36102-72.765 22.724-56.006-0.20614 20.775-31.812 32.301-22.724 56.006zm-6.5027-25.214c6.8194 2.2803-2.2224-4.4865 0 0zm4.9836-4.9307c10.307-3.6246-5.6519-1.4942 0 0zm11.946-29.719c8.7625-4.849-5.3176-3.5592 0 0zm-2.3487 57.077c-7.4758-0.91254 3.3081-7.9171 0 0zm8.2274-4.1143c-9.2963 0.86877 4.3848-6.9597 0 0zm4.208-1.7066c-9.3086 0.42516 4.6361-6.9666 0 0zm-63.722-3.339c-18.531 4.9777-31.43-39.286-6.3038-17.055 7.5652 1.9373 16.925 11.241 6.3038 17.055zm70.878-1.4368c-9.0678 2.8542 2.2384-9.7007 0 0zm-54.481-2.1033c-3.0698-11.016 11.34 4.7277 0 0zm60.696-2.593c-7.0351 3.1876-0.4849-8.2294 0 0zm6.6996-5.407c-7.9728 4.4682-0.15109-9.029 0 0zm7.6588-8.7552c-7.2441 5.258 3e-3 -8.2179 0 0zm-106.61-3.0553c-3.8582 4.1822-1.5397-4.3214 0 0zm108.59 0.56794c-8.0875 5.8907-0.47617-10.008 0 0zm-27.886-3.4243c-3.1184-9.5418 6.739 1.9347 0 0zm32.443-2.3124c-7.545 5.6666-2.2885-9.1113 0 0zm-69.093-2.6192c-4.17-7.1585 6.0576 2.2678 0 0zm-42.952-0.31679c-2.3569-9.6043 6.2651 2.0199 0 0zm18.2-2.8724c-15.202-13.716 24.289-17.769 2.6256-2.2757-0.87519 0.75857-1.7504 1.5171-2.6256 2.2757zm82.804-0.88137c3.9406-8.0716 6.1146 7.7644 0 0zm-58.073-0.81205c-2.1048-7.6438 6.2334 3.7015 0 0zm41.831-3.0689c-4.5842-4.9008 5.3575 2.2779 0 0zm-99.712-0.67572c-24.563-7.0403 18.555-36.378 6.3213-7.3075-1.8146 2.6773-4.1082 4.9693-6.3213 7.3075zm118.25-1.0288c2.9687-8.9805 6.639 6.529 0 0zm-62.869-12.814c-18.661-3.2611 7.7839-22.96 0 0zm42.054-5.5735c-20.428-0.73478 9.3986-27.563 0.7876-2.7136l-0.42097 1.4504zm-26.723-0.39819c-10.768 2.8244 3.66-7.5434 0 0zm-55.517-3.9767c-13.549-3.1523 9.0989-16.283 0 0zm103.25-1.203c1.4184-8.7412 7.4294 5.4371 0 0zm-99.389-7.1904c0.80345-11.982 10.716 7.747 0 0zm32.874-1.3808c-16.527 1.0554 4.3722-21.992-0.0405-0.84975zm10.841-0.41599-0.43267-0.17299zm3.3602-4.3922c-16.584-11.368 23.509-13.748 2.675-0.71591l-1.4589 0.39045zm-67.288-12.33c-6.7699-0.97401 2.9687-7.7548 0 0zm79.79-0.61511c-2.7776 8.0333-6.2199-3.9065 0 0zm-65.685-0.15659c-5.06-4.408-0.09794-8.6445 0 0zm-2.5047-0.40569c-5.5729-3.4155-0.92036-10.808 0 0zm4.2742-1.2641c-6.6139-8.0781 1.0985-6.0614 0 0zm3.0874-2.1723c-4.9242-3.897 1.2929-10.819 0 0zm41.995 0.36805c-11.108-4.8504 11.314-5.1543 0 0zm14.494-0.12373c-10.017 3.8278 4.3741-8.7222 0 0zm-52.329-0.64712c-4.3948-6.7186 0.65924-6.5879 0 0zm8.0036-0.0578c-6.964-15.249 14.036-19.7 0 0zm-6.2595-0.86627c-4.2744-7.9193 0.13572-8.7724 0 0zm-8.6453-0.12276c-5.0897-3.879 0.02367-10.57 0 0zm10.568-0.68351c-4.8024-4.9326 1.3254-12.124 0 0zm3.9411-0.91486c-4.4224-5.0528 1.7518-13.048 0 0zm-32.625-0.39483c-8.9601-1.5488 6.2598-7.3216 0 0zm30.164-1.0725c-3.7688-7.0949 1.073-6.4436 0 0zm11.786-1.9363c-5.5757-5.7535 5.8722-8.8279 0 0zm-21.453-0.28964c-4.5347-2.7656 2.6915-7.3337 0 0zm49.139-1.2602c-2.2988-7.4786 6.3226-7.5304 0 0zm-29.477-0.56334c-4.9942-4.0703 4.9134-8.2055 0 0zm16.552-3.0588c-4.0806-4.5838 5.6104-9.456 0 0zm-12.523 0.23966c-4.5837-4.0034 4.1658-8.0355 0 0zm8.5807 2.4975c-4.6905-7.5934 5.5711-8.9956 0 0zm1.8594 6e-3c-3.1679-6.8964 4.4798-8.264 0 0zm-3.9775-0.53783c-3.2294-8.7538 4.0539-6.9052 0 0zm-4.225-0.25108c-3.8279-6.4283 3.7886-8.7878 0 0zm14.488-1.1729c-3.4602-4.4195 5.8928-8.6648 0 0zm6.9239 0.61189c-3.397-5.3987 6.9835-8.0687 0 0zm-19.55-0.6573c-4.1233-4.0212 6.5467-8.5775 0 0zm17.176-0.056c-2.7039-6.586 6.4659-6.049 0 0zm-2.1297-0.0893c-3.4897-4.8886 5.5964-5.912 0 0zm-25.734-0.86581c-6.9675-4.581 7.1666-5.3244 0 0zm-35.362-2.2728c-10.229-0.67851 5.9974-7.9246 0 0zm70.574-0.44235c-3.2312-5.0043 6.3543-3.7779 0 0zm-12.928-4.6375c-3.9612-4.6361 5.9207-4.7572 0 0zm17.165-2.559c-4.4089-7.3202 8.9585-0.99065 0 0z" style="fill:#593116;stroke-width:.26458"/><path d="m91.685 292.02c-25.022-4.233 23.043 3.2459 29.863-3.0166 12.876-2.0337 38.936-16.901 43.142-18.098-20.481 16.064-47.293 22.603-73.005 21.115zm3.5902-2.4559c-10.149-10.318 12.397-0.91311 0 0zm10.239 0.02c-7.3186-5.4035 7.1697-2.216 0 0zm-20.685-0.79854c-3.4092-7.5371 7.6589 2.0784 0 0zm-9.0199-1.8562c-3.6611-8.3069 8.3114 2.0177 0 0zm48.736-0.35834c-5.758-2.9228 5.4426-3.5633 0 0zm5.4151-1.4464c-18.812 0.88918-1.1641-34.964-2.6856-8.3953-0.22338 2.9545 0.19321 6.3831 2.6856 8.3953zm8.0786-2.7869c-7.262-2.5793 6.1371-4.0541 0 0zm3.7042-1.5875c-8.1362-1.267 5.1987-6.3982 0 0zm4.5233-2.5268c-9.553 0.71555 3.92-6.2175 0 0zm4.208-1.7066c-9.285 1.15 4.2192-7.0796 0 0zm-65.35-4.4354c-10.393 2.6033 4.7647-9.9268 0 0zm72.554-0.27921c-9.145 2.6708 2.4598-9.7083 0 0zm-63.296-1.2488c-7.3047 0.70898 4.8444-2.8511 0 0zm9.3262-1.3124c-6.8293-9.3504 10.116 1.1297 0 0zm60.136-2.1962c-7.0351 3.1876-0.4849-8.2294 0 0zm-93.592-4.1626c-17.665-9.2396 19.817-9.1009 0 0zm71.458-7.9937c-12.888-9.87 17.04-9.7876 0.3829-0.30547zm-34.813-3.5908c-5.0181-7.9066 7.3185 2.2647 0 0zm73.29-0.90245c-8.0042 4.551 0.9928-9.3737 0 0zm4.5572-5.7367c-6.9668 4.1392-0.29748-8.113 0 0zm-128.08-1.3758c-11.956 2.6973 5.1229-5.8442 0 0zm5.5566-1.2496c-3.674-10.737 9.8497 4.3842 0 0zm29.682-3.5941c-9.3126 4.4884 2.7618-3.6764 0 0zm81.797-0.47015c3.9406-8.0716 6.1146 7.7644 0 0zm-56.092-2.0127c-9.0773-4.4153 7.472 0.0819 0 0zm-60.127-2.9605c-14.716-6.7062 16.494-12.888 0 0zm118.51-0.61223c2.9687-8.9805 6.639 6.529 0 0zm-79.681-1.2221c-7.6321-6.6894 9.7871-4.5182 0 0zm50.336-1.489c-5.172-10.314 6.4256 3.6402 0 0zm8.0012-0.5797c-5.5367-14.52 9.3192 6.1346 0 0zm-1.313-7.1474c-4.1589 5.936-2.2668-5.0915 0 0zm-91.128-0.79638c-8.5369-4.2832 8.3975-2.3249 0 0zm49.144-4.9788c-10.306-3.8422 6.4916-3.6425 0 0zm42.55-3.0544c-5.7976-5.4511 7.4168 0.1568 0 0zm-51.904-2.824c-12.677-5.9931 10.125-3.9348 0 0zm74.187-1.8737c1.4184-8.7412 7.4294 5.4371 0 0zm-27.826-3.9621c-1.5515-10.251 9.8087 5.3924 0 0zm-83.628-3.5172c-4.2172-10.581 11.637 3.2779 0 0zm56.044-1.5036c-6.4457 4.5721 0.99969-7.1136 0 0zm-32.447-2.3913c-9.7376-1.1643 5.5343-2.8655 0 0zm18.935-2.4285c-9.9305 1.6003 3.7908-5.7429 0 0zm22.485-3.6886c-12.78 1.4776 6.3459-12.333 0 0zm-25.598-3.977c-7.1693 3.3475 3.3728-5.1171 0 0zm-47.566-4.2408c-6.8017-0.94962 2.9622-7.6738 0 0zm79.956-0.57242c-5.149 7.2994-3.2779-5.2744 0 0zm-65.851-0.19928c-5.06-4.408-0.09794-8.6445 0 0zm-2.5047-0.40569c-5.5729-3.4155-0.92036-10.808 0 0zm4.2742-1.2641c-6.6139-8.0781 1.0985-6.0614 0 0zm3.0874-2.1723c-4.9242-3.897 1.2929-10.819 0 0zm4.0155-0.53239c-4.8686-5.0688 1.5378-8.6861 0 0zm1.8792-0.80698c-4.2659-7.9183 0.13739-8.7694 0 0zm8.3697 0.26962c-3.2356-9.8001 3.791-8.3255 0 0zm-17.005-0.37986c-5.0897-3.879 0.02367-10.57 0 0zm10.509-1.0804c-4.8708-5.0035 1.4023-11.777 0 0zm-28.625-0.91281c-8.9601-1.5488 6.2598-7.3216 0 0zm32.672 0.14552c-4.9838-4.5956 2.8779-11.869 0 0zm33.801-0.6717c-0.9997 7.0436-4.0478-3.7515 0 0zm-32.101-0.16003c-4.7157-13.419 1.9512-6.3168 0 0zm-4.2248-0.51326c-4.485-4.3975 2.2985-10.522 0 0zm11.883-2.038c-5.613-5.7324 5.743-8.9491 0 0zm-21.588-0.61223c-4.7557-2.5771 2.6396-8.3559 0 0zm49.184-0.73543c-2.2186-7.4301 6.2412-7.5625 0 0zm-12.897-0.34353c-4.3787-6.1109 6.5101-10.161 0 0zm-16.285-0.42396c-6.3852-5.895 4.9143-10.021 0 0zm4.143-0.0706c-5.2067-5.538 4.9419-10.861 0 0zm8.2124-0.52848c-3.8417-6.7308 5.148-8.2408 0 0zm2.0088-3.8511c-3.8129-3.996 4.7184-5.1328 0 0zm-4.1331 2.8118c-3.6837-4.9843 5.0535-6.8318 0 0zm10.327 0.2773c-2.934-7.1674 5.591-7.8283 0 0zm6.8349-0.0734c-3.3969-5.3987 6.9834-8.0688 0 0zm-19.402-0.63733c-4.2435-4.1965 5.0001-8.5854 0 0zm17.161-0.0243c-3.6131-4.7228 6.7296-6.7973 0 0zm-2.2625-0.1409c-3.4897-4.8886 5.5964-5.912 0 0zm-26.434-6.1818c-6.2538-4.221 5.9741-6.0387 0 0zm-34.662 3.0427c-10.229-0.67851 5.9974-7.9246 0 0zm70.574-0.44235c-3.2312-5.0043 6.3543-3.7779 0 0zm-26.685-1.9904c-5.615-5.0364 6.4349-5.1345 0 0zm13.758-2.6471c-3.9612-4.6361 5.9207-4.7572 0 0zm17.165-2.559c-4.4089-7.3202 8.9585-0.99065 0 0z" style="fill:#292422;stroke-width:.26458"/></g><path d="m151.98 52.381a94.44 78.7 0 0 1 49.241 69.138l-94.44-0.0369z" style="fill-rule:evenodd;fill:#593116;paint-order:markers stroke fill;stop-color:#000000;stroke-linecap:round;stroke-linejoin:bevel;stroke-width:2.2;stroke:#593116"/><path d="m201.22 126.24a94.44 78.7 0 0 1-33.509 60.129l-60.931-60.129z" style="fill-rule:evenodd;fill:#946434;paint-order:markers stroke fill;stop-color:#000000;stroke-linecap:round;stroke-linejoin:bevel;stroke-width:2.2;stroke:#946434"/><path d="m70.243 44.517a94.44 78.7 0 0 1 77.339 4.3764l-44.504 69.414z" style="fill-rule:evenodd;fill:#9e9c98;paint-order:markers stroke fill;stop-color:#000000;stroke-linecap:round;stroke-linejoin:bevel;stroke-width:2.2;stroke:#9e9c98"/><g style="fill:#af670d;stroke-width:.26458" aria-label="?"><path d="m60.254 74.1c-2.1006 5.2664-1.2461 6.4819-5.7102 8.8444-1.2044 0.63744-6.0535 1.0734-8.0825 5.3826-2.0289 4.3093 4.6077 10.162 0 14.77-4.6077 4.6077-19.912 4.4157-24.327 0-4.4157-4.4157 0-12.164 0-13.141s1.9549-4.5976 2.9323-5.4302 14.358-5.7035 16.618-10.504c2.2603-4.8006 5.6746-10.86-2.1339-18.028-7.8085-7.1684-16.628 5.2948-24.91 1.7071-8.2823-3.5877-8.3428-10.107 0-16.616 8.3428-6.509 38.57-4.9546 41.621-0.30517 3.0512 4.6494 1.0048 0.30517 3.9924 8.5591 2.9876 8.2539 2.1006 19.495 0 24.762zm-20.441 59.12c-5.8364 5.8364-12.556 5.0901-16.506-0.53593-3.9496-5.626-1.8561-11.446 1.1624-14.26 3.0185-2.8143 9.7747-6.3723 15.611-0.53593 5.8364 5.8364 5.5684 9.4958-0.26796 15.332z" style="fill:#af670d;stroke-width:.56564"/></g></svg>
