<?xml version="1.0" encoding="UTF-8" standalone="no"?>
<!-- Created with Inkscape (http://www.inkscape.org/) -->

<svg
   width="210mm"
   height="297mm"
   viewBox="0 0 210 297"
   version="1.1"
   id="svg15100"
   inkscape:version="1.2.1 (9c6d41e410, 2022-07-14)"
   sodipodi:docname="gato.svg"
   xmlns:inkscape="http://www.inkscape.org/namespaces/inkscape"
   xmlns:sodipodi="http://sodipodi.sourceforge.net/DTD/sodipodi-0.dtd"
   xmlns="http://www.w3.org/2000/svg"
   xmlns:svg="http://www.w3.org/2000/svg">
  <sodipodi:namedview
     id="namedview15102"
     pagecolor="#ffffff"
     bordercolor="#666666"
     borderopacity="1.0"
     inkscape:showpageshadow="2"
     inkscape:pageopacity="0.0"
     inkscape:pagecheckerboard="0"
     inkscape:deskcolor="#d1d1d1"
     inkscape:document-units="mm"
     showgrid="false"
     inkscape:zoom="1.5199611"
     inkscape:cx="283.23094"
     inkscape:cy="296.38917"
     inkscape:window-width="1920"
     inkscape:window-height="1001"
     inkscape:window-x="-9"
     inkscape:window-y="-9"
     inkscape:window-maximized="1"
     inkscape:current-layer="layer1" />
  <defs
     id="defs15097" />
  <g
     inkscape:label="Calque 1"
     inkscape:groupmode="layer"
     id="layer1">
    <path
       id="rect15435"
       style="fill:#af670d;fill-opacity:1;fill-rule:evenodd;stroke:none;stroke-width:2.2;stroke-linecap:round;stroke-linejoin:bevel;stroke-dasharray:4.39999, 8.79999;paint-order:markers stroke fill;stop-color:#000000"
       d="m 136.40873,74.797502 v 20.119702 8.158156 8.15764 l 0.39672,0.0508 c 3.50854,-2.57075 5.24425,-5.33858 5.25875,-8.07768 -0.001,-0.0436 -0.003,-0.0872 -0.005,-0.13074 h 0.0558 V 74.797502 Z"
       sodipodi:nodetypes="cccccccccc" />
    <path
       id="path15379"
       style="fill:#e9afaf;fill-rule:evenodd;stroke:none;stroke-width:2.2;stroke-linecap:round;stroke-linejoin:bevel;stroke-dasharray:4.39999, 8.79999;paint-order:markers stroke fill;stop-color:#000000"
       d="m 136.70948,66.682235 -80.903625,8.115063 69.833505,13.676888 c 10.69358,-3.97842 16.45882,-8.764288 16.47548,-13.676684 -0.001,-2.770072 -1.83161,-5.517986 -5.40536,-8.115267 z"
       sodipodi:nodetypes="ccccc" />
    <rect
       style="fill:#ffb380;fill-rule:evenodd;stroke:#000000;stroke-width:0;stroke-linecap:round;stroke-linejoin:bevel;stroke-dasharray:0,0;paint-order:markers stroke fill;stop-color:#000000;stroke-dashoffset:0"
       id="rect15273"
       width="81.396362"
       height="28.459459"
       x="56.079212"
       y="69.26696"
       ry="0"
       transform="matrix(0.99512551,0.09861654,0,1,0,0)" />
    <rect
       style="fill:#005522;fill-rule:evenodd;stroke:none;stroke-width:2.20538;stroke-linecap:round;stroke-linejoin:bevel;stroke-dasharray:4.41074, 8.8215;paint-order:markers stroke fill;stop-color:#000000"
       id="rect870"
       width="47.10648"
       height="1.9533386"
       x="56.674778"
       y="72.580376"
       ry="0.73432457"
       transform="matrix(0.99512551,0.09861654,0,1,0,0)" />
    <rect
       style="fill:#c83737;fill-rule:evenodd;stroke:none;stroke-width:2.20538;stroke-linecap:round;stroke-linejoin:bevel;stroke-dasharray:4.41074, 8.8215;paint-order:markers stroke fill;stop-color:#000000"
       id="rect872"
       width="26.443132"
       height="1.9533386"
       x="56.674778"
       y="77.62001"
       ry="0.57362163"
       transform="matrix(0.99512551,0.09861654,0,1,0,0)" />
    <rect
       style="fill:#006680;fill-rule:evenodd;stroke:none;stroke-width:2.20538;stroke-linecap:round;stroke-linejoin:bevel;stroke-dasharray:4.41074, 8.8215;paint-order:markers stroke fill;stop-color:#000000"
       id="rect874"
       width="65.949684"
       height="1.9533386"
       x="56.674778"
       y="82.610519"
       ry="0.93759537"
       transform="matrix(0.99512551,0.09861654,0,1,0,0)" />
    <rect
       style="fill:#800066;fill-rule:evenodd;stroke:none;stroke-width:2.20538;stroke-linecap:round;stroke-linejoin:bevel;stroke-dasharray:4.41074, 8.8215;paint-order:markers stroke fill;stop-color:#000000"
       id="rect878"
       width="80.205231"
       height="1.9533406"
       x="56.674778"
       y="87.635101"
       ry="0.93759537"
       transform="matrix(0.99512551,0.09861654,0,1,0,0)" />
    <rect
       style="fill:#d4aa00;fill-rule:evenodd;stroke:none;stroke-width:2.20538;stroke-linecap:round;stroke-linejoin:bevel;stroke-dasharray:4.41074, 8.8215;paint-order:markers stroke fill;stop-color:#000000"
       id="rect880"
       width="48.83955"
       height="1.9533386"
       x="56.674778"
       y="92.688728"
       ry="0.62754858"
       transform="matrix(0.99512551,0.09861654,0,1,0,0)" />
    <path
       id="rect887"
       style="fill:#ff7f2a;fill-rule:evenodd;stroke:#000000;stroke-width:0.756526;stroke-linecap:round;stroke-linejoin:bevel;stroke-dasharray:none;stroke-dashoffset:0;paint-order:markers stroke fill;stop-color:#000000"
       d="m 141.62475,111.7875 -7.36318,-0.72969 -78.427453,-7.77213"
       sodipodi:nodetypes="ccc" />
    <path
       style="fill:none;stroke:#000000;stroke-width:1;stroke-linecap:round;stroke-linejoin:round;stroke-dasharray:none;stroke-opacity:1"
       d="m 137.65593,113.83434 5.00384,-1.91608 -1.51272,-2.64262"
       id="path1509"
       sodipodi:nodetypes="ccc" />
    <path
       id="path1569"
       style="fill:none;fill-opacity:1;fill-rule:evenodd;stroke:#000000;stroke-width:0.6;stroke-linecap:round;stroke-linejoin:bevel;stroke-dasharray:none;paint-order:markers stroke fill;stop-color:#000000"
       d="M 136.70948 66.682235 L 55.805896 74.797502 L 55.805896 103.25675 L 136.8056 111.28365 C 140.31414 108.7129 142.0497 105.9452 142.0642 103.2061 C 142.0632 103.1625 142.06103 103.1189 142.05903 103.07536 L 142.11484 103.07536 L 142.11484 74.797502 C 142.11384 72.027432 140.28323 69.279513 136.70948 66.682235 z " />
  </g>
</svg>
