<?xml version="1.0" encoding="UTF-8"?>
<svg width="15mm" height="15mm" version="1.1" viewBox="0 0 15 15" xmlns="http://www.w3.org/2000/svg">
 <path d="m7.4998 0.6413a5.5792 5.5993 0 0 0-0.41341 0.015503c-0.0017114 1.2494e-4 -0.0034568-1.2647e-4 -0.0051677 0a5.5792 5.5993 0 0 0-5.1604 5.5836 5.5792 5.5993 0 0 0 5.579 5.5997 5.5792 5.5993 0 0 0 5.5795-5.5997 5.5792 5.5993 0 0 0-5.1485-5.5826c-0.047737-0.0036305-0.095597-0.0068758-0.14366-0.0093018a5.5792 5.5993 0 0 0-0.14263-0.0051676c-3.429e-4 -8.68e-6 -6.905e-4 8.62e-6 -0.0010335 0a5.5792 5.5993 0 0 0-0.14366-0.0020671z" fill="#d45500" fill-rule="evenodd" stop-color="#000000" stroke-linecap="round" stroke-linejoin="bevel" stroke-width=".38719" style="paint-order:markers stroke fill"/>
 <path d="m7.4998 1.7265a4.5142 4.5142 0 0 0-4.5139 4.5139 4.5142 4.5142 0 0 0 4.5139 4.5143 4.5142 4.5142 0 0 0 4.5143-4.5143 4.5142 4.5142 0 0 0-4.5143-4.5139zm0 0.77191a3.7423 3.7423 0 0 1 3.7424 3.742 3.7423 3.7423 0 0 1-3.7424 3.7424 3.7423 3.7423 0 0 1-3.742-3.7424 3.7423 3.7423 0 0 1 3.742-3.742z" fill="#e6e6e6" fill-rule="evenodd" stop-color="#000000" stroke-linecap="round" stroke-linejoin="bevel" stroke-width=".31214" style="paint-order:markers stroke fill"/>
 <text x="7.5048504" y="14.635936" fill="#d45500" font-family="'Great Lakes NF'" font-size="3.175px" font-weight="bold" stroke-width=".26458" text-align="end" text-anchor="end" style="line-height:1.25" xml:space="preserve"><tspan x="7.5048504" y="14.635936" fill="#d45500" font-family="Iosevka" font-size="3.175px" font-weight="bold" stroke-width=".26458" text-align="center" text-anchor="middle">1 h 55 min</tspan></text>
 <rect transform="matrix(-.99998 .0056807 -.0025889 -1 0 0)" x="-10.21" y="-6.6049" width="1.9424" height=".40826" ry=".20413" fill="#e6e6e6" fill-rule="evenodd" stop-color="#000000" stroke-linecap="round" stroke-linejoin="bevel" stroke-width=".125" style="paint-order:markers stroke fill"/>
 <rect transform="matrix(.0048158 .99999 -1 .0030539 0 0)" x="3.2613" y="-7.7096" width="3.0296" height=".53982" ry=".26991" fill="#e6e6e6" fill-rule="evenodd" stop-color="#000000" stroke-linecap="round" stroke-linejoin="bevel" stroke-width=".17951" style="paint-order:markers stroke fill"/>
 <path d="m6.1516 6.0942 1.5804 2.64e-5 -2.2e-6 3.5796c-0.3609-0.079169-1.5804-0.67293-1.5804-2.0091-2e-7 -0.036736-1.05e-5 -1.5706-1.05e-5 -1.5706z" fill="#b3b3b3"/>
 <path d="m7.4998 1.7265a4.5142 4.5142 0 0 0-4.5139 4.5139 4.5142 4.5142 0 0 0 4.5139 4.5143 4.5142 4.5142 0 0 0 4.5143-4.5143 4.5142 4.5142 0 0 0-4.5143-4.5139zm0 0.77191a3.7423 3.7423 0 0 1 3.7424 3.742 3.7423 3.7423 0 0 1-3.7424 3.7424 3.7423 3.7423 0 0 1-3.742-3.7424 3.7423 3.7423 0 0 1 3.742-3.742z" fill="#e6e6e6" fill-rule="evenodd" stop-color="#000000" stroke-linecap="round" stroke-linejoin="bevel" stroke-width=".31214" style="paint-order:markers stroke fill"/>
</svg>
