<?xml version="1.0" encoding="UTF-8"?>
<svg width="210mm" height="297mm" version="1.1" viewBox="0 0 210 297" xmlns="http://www.w3.org/2000/svg">
 <path d="m51.233 30.123c-2.7944 0-5.5886 1.0705-7.7298 3.2117-4.2824 4.2824-4.2824 11.178 1e-6 15.46l99.706 99.706-99.706 99.705c-4.2824 4.2824-4.2824 11.178 0 15.46 4.2824 4.2824 11.178 4.2824 15.46 0l106.19-106.19c0.47196-0.34093 0.92429-0.72223 1.3498-1.1477 2.167-2.1671 3.2353-5.003 3.2091-7.831 0.026-2.8278-1.0422-5.6636-3.2091-7.8305-0.4255-0.4255-0.87783-0.80679-1.3498-1.1477l-106.19-106.19c-2.1412-2.1412-4.9359-3.2117-7.7303-3.2117z" fill="#666" fill-rule="evenodd" stop-color="#000000" stroke-linecap="round" stroke-linejoin="bevel" stroke-width=".30491" style="paint-order:markers stroke fill"/>
</svg>
