<?xml version="1.0" encoding="UTF-8"?>
<svg width="15mm" height="15mm" version="1.1" viewBox="0 0 15 15" xmlns="http://www.w3.org/2000/svg">
 <path d="m7.4998 0.6413a5.5792 5.5993 0 0 0-0.41341 0.015503c-0.0017114 1.2494e-4 -0.0034568-1.2647e-4 -0.0051677 0a5.5792 5.5993 0 0 0-5.1604 5.5836 5.5792 5.5993 0 0 0 5.579 5.5997 5.5792 5.5993 0 0 0 5.5795-5.5997 5.5792 5.5993 0 0 0-5.1485-5.5826c-0.047737-0.0036305-0.095597-0.0068758-0.14366-0.0093018a5.5792 5.5993 0 0 0-0.14263-0.0051676c-3.429e-4 -8.68e-6 -6.905e-4 8.62e-6 -0.0010335 0a5.5792 5.5993 0 0 0-0.14366-0.0020671z" fill="#d45500" fill-rule="evenodd" stop-color="#000000" stroke-linecap="round" stroke-linejoin="bevel" stroke-width=".38719" style="paint-order:markers stroke fill"/>
 <text x="7.5048504" y="14.635936" fill="#d45500" font-family="'Great Lakes NF'" font-size="3.175px" font-weight="bold" stroke-width=".26458" text-align="end" text-anchor="end" style="line-height:1.25" xml:space="preserve"><tspan x="7.5048504" y="14.635936" fill="#d45500" font-family="Iosevka" font-size="3.175px" font-weight="bold" stroke-width=".26458" text-align="center" text-anchor="middle">1 h 55 min</tspan></text>
 <ellipse cx="22.873" cy="6.191" rx=".43332" ry=".50915" fill="#e6e6e6" fill-rule="evenodd" stop-color="#000000" style="paint-order:markers stroke fill"/>
 <g transform="matrix(.89514 0 0 .89514 .78642 .65433)" fill="#ececec">
  <path d="m6.9706 1.9001c-0.58289 0-1.1256 0.035181-1.5255 0.0863-0.19996 0.02556-0.36207 0.053661-0.49196 0.091467-0.064943 0.018903-0.11997 0.033223-0.19534 0.084233-0.037681 0.025505-0.089083 0.061019-0.12919 0.15245-0.024115 0.05497-0.0265 0.13164-0.013953 0.2005l0.043408 0.11782c-0.02039-0.029777-0.035087-0.07215-0.043408-0.11782l-0.00723-0.01912s0.11867 0.97805 0.51935 1.9689c0.20034 0.49541 0.4705 0.99926 0.85369 1.3963 0.2158 0.2236 0.71736 0.25011 0.71736 0.37956s-0.46007 0.17074-0.66465 0.38628c-0.37252 0.39246-0.64124 0.88906-0.84595 1.3772-0.2047 0.48811-0.34323 0.96944-0.43357 1.3338-0.045166 0.18216-0.078414 0.33555-0.10129 0.44338-0.011436 0.053916-0.019398 0.096085-0.025322 0.12299-0.00114 0.00517-0.00144 0.00697-0.00207 0.00982 7.987e-4 -0.00318 0.00157-0.00698 0.00362-0.011885 0.00409-0.00982 0.029766-0.053163 0.029456-0.05271-6.195e-4 9.047e-4 -0.050508 0.13184-0.050643 0.13281-1.353e-4 9.706e-4 0.011543 0.13953 0.011886 0.14056 3.427e-4 1e-3 0.030527 0.06844 0.046509 0.08992s0.031944 0.03737 0.044958 0.04909c0.052054 0.04689 0.080342 0.05415 0.10749 0.06615 0.05429 0.02398 0.10057 0.03726 0.1602 0.05271 0.11925 0.03091 0.27812 0.06279 0.47439 0.09198 0.39255 0.05837 0.92968 0.10749 1.5177 0.10749h1.0588c0.58806 0 1.1247-0.04913 1.5172-0.10749 0.19627-0.02918 0.35566-0.06107 0.47491-0.09198 0.05962-0.01545 0.1059-0.02873 0.1602-0.05271 0.02715-0.01199 0.05544-0.01926 0.10749-0.06615 0.01301-0.01172 0.02846-0.02761 0.04444-0.04909s0.04669-0.08889 0.04703-0.08992c3.43e-4 -1e-3 0.01201-0.13959 0.01188-0.14056-1.35e-4 -9.707e-4 -0.05002-0.1319-0.05064-0.13281-3.1e-4 -4.524e-4 0.02675 0.046176 0.03101 0.056844 0.0043 0.010668 0.0044 0.017017 0.0057 0.021187 0.0025 0.00834 0.0042 0.010288 0.0041 0.00982-2.22e-4 -9.486e-4 -0.0031-0.011869-0.0057-0.025321-0.0052-0.026902-0.0138-0.070678-0.02377-0.12506-0.019888-0.10877-0.049262-0.26166-0.089888-0.44545-0.081252-0.3676-0.20628-0.85381-0.40411-1.3457-0.19783-0.49184-0.46483-0.99154-0.84543-1.3844-0.21318-0.22005-0.79439-0.20143-0.79439-0.37078 0-0.16935 0.54329-0.17231 0.74736-0.38731 0.37252-0.39246 0.64279-0.887 0.84749-1.3751 0.2047-0.48811 0.34116-0.97151 0.4315-1.3358 0.04517-0.18216 0.07893-0.33348 0.1018-0.44132 0.01144-0.053916 0.02147-0.098152 0.02739-0.12506 2e-3 -0.00891 9.87e-4 -0.011154 0.0021-0.015503-0.0012 0.00378-0.0021 0.00775-0.0062 0.01757s-0.02925 0.05523-0.02894 0.054777c6.19e-4 -9.047e-4 0.05051-0.1339 0.05064-0.13488 1.35e-4 -9.706e-4 -0.01154-0.13953-0.01188-0.14056-3.42e-4 -0.00103-0.03105-0.068435-0.04703-0.089917s-0.03143-0.035304-0.04444-0.047026c-0.05206-0.046889-0.08034-0.056221-0.10749-0.068213-0.05429-0.023985-0.10057-0.037257-0.1602-0.05271-0.11928-0.030907-0.27867-0.060734-0.47494-0.089916-0.39255-0.058366-0.92916-0.10955-1.5172-0.10955zm0 0.61133h1.0588c0.55318 0 1.0652 0.04797 1.4273 0.1018 0.11991 0.017828 0.19056 0.035691 0.27182 0.05271-0.020658 0.095402-0.040968 0.19532-0.074414 0.33021-0.085532 0.34496-0.21712 0.80005-0.40411 1.2459-0.18699 0.44587-0.43179 0.88109-0.72657 1.1917-0.22713 0.23929-0.41942 0.34106-0.61234 0.42171-0.19292 0.080648-0.27927 0.24757-0.2796 0.36274 3.232e-4 0.13705-0.030058 0.28151 0.17983 0.3638 0.20989 0.082293 0.53969 0.22295 0.76274 0.4532 0.29748 0.30708 0.53726 0.74334 0.71675 1.1896 0.17949 0.44625 0.30058 0.90116 0.37724 1.248 0.030927 0.13992 0.04994 0.24608 0.068213 0.34365-0.082207 0.017391-0.15634 0.034387-0.27957 0.05271-0.36206 0.053832-0.87412 0.10129-1.4273 0.10129h-1.0588c-0.55318 0-1.0658-0.047453-1.4278-0.10129-0.11991-0.017828-0.19005-0.035691-0.2713-0.05271 0.020669-0.095463 0.040927-0.19722 0.074414-0.33228 0.085532-0.34496 0.21712-0.79798 0.40411-1.2439 0.18699-0.44587 0.43179-0.88264 0.72657-1.1932 0.20848-0.21964 0.49569-0.36189 0.69143-0.44855s0.2002-0.23485 0.2005-0.38034c-4.03e-5 -0.11059-0.056609-0.27257-0.26543-0.34857s-0.44248-0.18269-0.68335-0.43226c-0.30107-0.31195-0.54463-0.75104-0.72657-1.201-0.3208-0.79329-0.39589-1.4206-0.42168-1.5999 0.075922-0.015407 0.13522-0.030272 0.25011-0.044958 0.36459-0.046603 0.89066-0.080098 1.449-0.080098z" color="#000000" fill-rule="evenodd" stroke-linecap="round" stroke-linejoin="bevel" style="-inkscape-stroke:none;paint-order:markers stroke fill"/>
  <path d="m5.8984 4.2282s0.31996 1.4487 1.588 1.449 1.5726-1.449 1.5726-1.449h-1.5729z"/>
  <path d="m5.5242 9.6728c0.22021 0.087324 1.4405 0.18197 1.9616 0.16123 0.52088 0.020826 1.7419-0.073878 1.9622-0.16123 0 0-0.14516-1.6272-1.9617-1.6272s-1.962 1.6272-1.962 1.6272z"/>
 </g>
</svg>
