<?xml version="1.0" encoding="UTF-8" standalone="no"?>
<!-- Created with Inkscape (http://www.inkscape.org/) -->

<svg
   width="15mm"
   height="15mm"
   viewBox="0 0 15 15"
   version="1.1"
   id="svg548"
   inkscape:version="1.2.1 (9c6d41e410, 2022-07-14)"
   sodipodi:docname="totaltime.svg"
   xmlns:inkscape="http://www.inkscape.org/namespaces/inkscape"
   xmlns:sodipodi="http://sodipodi.sourceforge.net/DTD/sodipodi-0.dtd"
   xmlns="http://www.w3.org/2000/svg"
   xmlns:svg="http://www.w3.org/2000/svg">
  <sodipodi:namedview
     id="namedview550"
     pagecolor="#ffffff"
     bordercolor="#666666"
     borderopacity="1.0"
     inkscape:showpageshadow="2"
     inkscape:pageopacity="0.0"
     inkscape:pagecheckerboard="0"
     inkscape:deskcolor="#d1d1d1"
     inkscape:document-units="mm"
     showgrid="false"
     inkscape:zoom="6.105995"
     inkscape:cx="43.481857"
     inkscape:cy="29.642999"
     inkscape:window-width="1920"
     inkscape:window-height="1017"
     inkscape:window-x="-8"
     inkscape:window-y="-8"
     inkscape:window-maximized="1"
     inkscape:current-layer="layer1"
     showguides="false" />
  <defs
     id="defs545" />
  <g
     inkscape:label="Calque 1"
     inkscape:groupmode="layer"
     id="layer1">
    <path
       id="path1869"
       style="fill:#d45500;fill-rule:evenodd;stroke-width:0.387191;stroke-linecap:round;stroke-linejoin:bevel;paint-order:markers stroke fill;stop-color:#000000"
       d="M 7.4998006 0.64130452 A 5.5792403 5.5992846 0 0 0 7.0863892 0.65680745 C 7.0846778 0.65693239 7.0829324 0.65668098 7.0812215 0.65680745 A 5.5792403 5.5992846 0 0 0 1.920813 6.240446 A 5.5792403 5.5992846 0 0 0 7.4998006 11.840104 A 5.5792403 5.5992846 0 0 0 13.079305 6.240446 A 5.5792403 5.5992846 0 0 0 7.9307821 0.65784098 C 7.8830454 0.65421046 7.8351854 0.65096515 7.7871216 0.64853923 A 5.5792403 5.5992846 0 0 0 7.6444946 0.64337158 C 7.6441517 0.6433629 7.6438041 0.6433802 7.6434611 0.64337158 A 5.5792403 5.5992846 0 0 0 7.4998006 0.64130452 z " />
    <text
       xml:space="preserve"
       style="font-weight:bold;font-size:3.175px;line-height:1.25;font-family:'Great Lakes NF';-inkscape-font-specification:'Great Lakes NF Bold';text-align:end;text-anchor:end;fill:#d45500;fill-opacity:1;stroke-width:0.264583"
       x="7.5048504"
       y="14.635936"
       id="text1942"><tspan
         sodipodi:role="line"
         id="tspan1940"
         style="font-style:normal;font-variant:normal;font-weight:bold;font-stretch:normal;font-size:3.175px;font-family:Iosevka;-inkscape-font-specification:'Iosevka Bold';text-align:center;text-anchor:middle;fill:#d45500;fill-opacity:1;stroke-width:0.264583"
         x="7.5048504"
         y="14.635936">1 h 55 min</tspan></text>
    <ellipse
       style="fill:#e6e6e6;fill-opacity:1;fill-rule:evenodd;stroke:none;stroke-width:0.611;stroke-linecap:round;stroke-linejoin:bevel;stroke-dasharray:none;paint-order:markers stroke fill;stop-color:#000000"
       id="ellipse3950"
       cx="22.873075"
       cy="6.1910214"
       rx="0.43331733"
       ry="0.50914782" />
    <g
       id="g4017"
       transform="matrix(0.89514292,0,0,0.89514292,0.78642394,0.65432794)">
      <path
         id="rect3163"
         style="color:#000000;fill:#ececec;fill-rule:evenodd;stroke-linecap:round;stroke-linejoin:bevel;-inkscape-stroke:none;paint-order:markers stroke fill"
         d="M 6.970634,1.9001424 C 6.2649309,1.9151901 5.5433189,1.9148799 4.8594251,2.1079858 4.5501229,2.0790003 4.6356919,2.6593157 4.6318831,2.5799643 4.5766753,2.4012137 4.6815072,2.9430858 4.7025223,3.0412624 4.9265423,4.0505695 5.261163,5.0900099 5.9805178,5.8611418 6.1353344,6.0974669 6.6438183,6.0185122 6.677714,6.2856286 6.3763497,6.4447134 6.0153479,6.5352005 5.8343693,6.8579881 5.1642527,7.7451387 4.8498771,8.8411269 4.6250372,9.914125 c 0.029188,-0.1278664 -0.088429,0.37079 0.1488704,0.393942 0.5788597,0.211117 1.209368,0.227626 1.8191031,0.265534 1.1586349,0.0023 2.3349343,0.06867 3.4711483,-0.204215 0.340665,0.06075 0.329167,-0.5844798 0.318655,-0.432005 C 10.163693,8.7750922 9.8599001,7.5517458 9.0492692,6.6486239 8.8845345,6.3557214 8.2593236,6.5130906 8.2432732,6.1842584 8.5618621,6.0151549 8.9779298,5.9815166 9.165894,5.6225783 9.841886,4.7358429 10.149431,3.634847 10.377179,2.5605671 10.339282,2.7142828 10.469058,2.1941614 10.226243,2.1733428 9.6983071,1.9751845 9.1203558,1.9587208 8.5628914,1.9137959 8.0325644,1.8901545 7.5013287,1.9037834 6.970634,1.9001424 Z m 0,0.6113322 C 7.8914291,2.5168512 8.821904,2.473091 9.7286051,2.6659872 9.5051717,3.6461536 9.2064247,4.6672463 8.5235107,5.4337769 8.3091262,5.7435575 7.8767745,5.7755158 7.6693162,6.0741078 7.4633124,6.4691003 7.8945926,6.6395297 8.1878471,6.7531453 8.8167954,7.097652 9.124083,7.7955358 9.3708186,8.4341886 9.532389,8.8832013 9.6519737,9.3469303 9.7363567,9.8164551 8.7091155,10.024257 7.6559248,9.9652983 6.6145879,9.9640687 6.1646603,9.944104 5.7123312,9.9131158 5.2715129,9.8164551 5.4869031,8.8596595 5.7810074,7.8719967 6.4219236,7.1067963 6.6438153,6.8260742 6.9888936,6.7033301 7.2819032,6.5230338 7.5326688,6.2111556 7.2412943,5.8383104 6.9006031,5.7859884 6.2152939,5.4427075 5.8705732,4.6991521 5.6092847,4.0179312 5.4465485,3.5716628 5.3326368,3.1076309 5.2715129,2.6365316 5.8293569,2.5289766 6.4040484,2.518273 6.970634,2.5114746 Z"
         sodipodi:nodetypes="sssssccccsszssssscssscsccccssscsssccscccscssszssscccssccscsssssssscssszczssscsssscssszczsscss" />
      <path
         id="path3982"
         style="fill:#ececec;stroke:none;stroke-width:0.264583px;stroke-linecap:butt;stroke-linejoin:miter;stroke-opacity:1"
         d="M 5.8984115,4.2281657 C 6.025184,4.7055659 6.284433,5.1720239 6.7033115,5.4506593 7.2282097,5.7966995 7.9858623,5.7451461 8.446653,5.3117035 8.7574635,5.0259443 8.9565098,4.6340126 9.0589979,4.2281657 c -1.0535288,0 -2.1070576,0 -3.1605864,0 z"
         sodipodi:nodetypes="ccccc" />
      <path
         id="path3984"
         style="fill:#ececec;stroke:none;stroke-width:0.264583px;stroke-linecap:butt;stroke-linejoin:miter;stroke-opacity:1"
         d="M 5.5242106,9.6727946 C 5.939422,9.7785826 6.3709043,9.78919 6.7962072,9.8208262 7.5766795,9.8578621 8.3615538,9.835888 9.1367073,9.7350824 9.2361337,9.6984943 9.4292018,9.7443908 9.442427,9.60382 9.4067792,9.4461471 9.3613389,9.2889362 9.2994135,9.1388742 9.0884959,8.6430514 8.6464296,8.2456255 8.1174757,8.1232948 7.6282949,7.9988018 7.0975645,8.0191 6.6240544,8.1965991 6.1403017,8.3892476 5.7667357,8.812202 5.6097043,9.3058187 5.5692543,9.4249306 5.5397533,9.5479104 5.5242106,9.6727946 Z"
         sodipodi:nodetypes="ccczc" />
    </g>
  </g>
</svg>
